<?xml version="1.0" encoding="UTF-8"?>
<svg id="Layer_1" xmlns="http://www.w3.org/2000/svg" xmlns:xlink="http://www.w3.org/1999/xlink" viewBox="0 0 256 256">
  <defs>
    <style>
      .cls-1 {
        fill: none;
      }

      .cls-2 {
        fill: #f2d4c2;
      }

      .cls-3 {
        fill: #1b2b40;
      }

      .cls-4 {
        clip-path: url(#clippath);
      }
    </style>
    <clipPath id="clippath">
      <circle class="cls-1" cx="128" cy="128" r="113.22"/>
    </clipPath>
  </defs>
  <g class="cls-4">
    <rect class="cls-3" x="0" width="256" height="256"/>
  </g>
  <g>
    <path class="cls-2" d="M95.7,122.38c1.49,0,2.72.48,3.69,1.45.97.97,1.45,2.2,1.45,3.68s-.48,2.72-1.45,3.69c-.97.97-2.2,1.45-3.69,1.45h-28.92c-1.42,0-2.62-.48-3.63-1.45-1.01-.97-1.51-2.19-1.51-3.69s.5-2.72,1.51-3.68c1-.97,2.21-1.45,3.63-1.45h28.92ZM93.47,97.59c1.41,0,2.87.19,4.35.56,1.49.37,2.74.99,3.74,1.84,1,.86,1.51,2.03,1.51,3.52s-.45,2.7-1.34,3.63c-.89.93-1.94,1.4-3.13,1.4-.75,0-1.75-.17-3.02-.5-1.27-.33-2.53-.5-3.8-.5-1.71,0-3.09.39-4.13,1.17-1.04.78-1.79,1.75-2.23,2.9-.45,1.16-.67,2.29-.67,3.41v59.4c0,1.64-.54,3-1.62,4.08s-2.4,1.62-3.96,1.62-2.98-.54-4.02-1.62c-1.04-1.08-1.56-2.44-1.56-4.08v-59.29c0-5.14,1.69-9.34,5.08-12.62,3.39-3.27,8.32-4.91,14.79-4.91Z"/>
    <path class="cls-2" d="M108.77,180.7c-1.89,0-3.48-.67-4.76-2.01-1.29-1.34-1.94-2.85-1.94-4.54s.6-3.37,1.79-5.06l31.56-42.73,8.19,12.06-28.73,38.86c-1.59,2.28-3.62,3.42-6.1,3.42ZM109.81,75.44c2.38,0,4.42,1.04,6.1,3.13l67.15,90.22c1.09,1.29,1.64,2.78,1.64,4.47,0,2.38-.84,4.22-2.53,5.51-1.69,1.29-3.38,1.94-5.06,1.94-2.38,0-4.37-1.04-5.96-3.13l-67.29-90.07c-1.09-1.39-1.64-2.88-1.64-4.47,0-2.18.79-3.99,2.38-5.43,1.59-1.44,3.32-2.16,5.21-2.16ZM177.7,75.59c1.98,0,3.65.72,4.99,2.16,1.34,1.44,2.01,3,2.01,4.69,0,1.59-.55,3.13-1.64,4.62l-31.27,41.84-8.49-11.76,28.44-37.96c1.69-2.38,3.67-3.57,5.96-3.57Z"/>
  </g>
</svg>